<svg id="Layer_1" data-name="Layer 1" xmlns="http://www.w3.org/2000/svg" viewBox="0 0 394.77 378.8"><defs><style>.cls-1{fill:#5865f2;}.cls-2,.cls-3{fill:#fff;}.cls-3{stroke:#231f20;}.cls-3,.cls-4{stroke-miterlimit:10;}.cls-4{fill:none;stroke:#f6f6f6;stroke-width:4px;}</style></defs><path class="cls-1" d="M341.91,164.11l41.35,94.64a386.87,386.87,0,0,0,44.79-15.61,387.4,387.4,0,0,0,46.14-23l-41.76-95.56,11.38,6.72,23.74-28.46a119.87,119.87,0,0,0-16.84-13.16,125.81,125.81,0,0,0-19.15-10.15q-7.51,1-15.35,1.85-9.58,1-18.75,1.8a43.58,43.58,0,0,1-60.55,26.45q-5.88,5.56-11.79,11.11-6.4,6-12.84,12c-1.84,5.6-3.6,11.58-5.19,17.92-2.16,8.59-3.73,16.69-4.87,24.19a143.44,143.44,0,0,1,19.36.14,137.4,137.4,0,0,1,18.26,2.61Z" transform="translate(-302.22 -79.51)"/><path class="cls-1" d="M385.34,261.86l1.36,3.1a356.22,356.22,0,0,0,46.74-16.67,355.88,355.88,0,0,0,43.78-22.88l-1.35-3.11C462.08,229.54,447,236.88,430.61,244,414.76,250.92,399.6,256.81,385.34,261.86Z" transform="translate(-302.22 -79.51)"/><path class="cls-2" d="M393.94,186.41a25,25,0,0,0,7.17,4.49,25.53,25.53,0,0,0,10.79,1.87,46.64,46.64,0,0,1-9.21,25.44c-8.4,10.9-22.35,17.93-25.45,15-2.06-2,1.6-7.48,9.43-27.24C390,197.67,392.4,190.82,393.94,186.41Z" transform="translate(-302.22 -79.51)"/><path class="cls-2" d="M392.78,179.59c2.39,7.2,10.86,11.31,18,10.5a13.17,13.17,0,0,0,6.68-2.52c5.61-4.27,7.31-13.51,4.18-16.48-2.51-2.39-5.95,1.33-12.29-.71s-7.89-7.39-11.45-6.57c-2.77.64-4.14,4.42-4.82,6.3A14.79,14.79,0,0,0,392.78,179.59Z" transform="translate(-302.22 -79.51)"/><path class="cls-3" d="M382.56,212.94" transform="translate(-302.22 -79.51)"/><path class="cls-2" d="M422.05,128h0a1.65,1.65,0,0,0-2,1.25l-10.47,37.25a1.76,1.76,0,0,0,1,2.2h0a1.64,1.64,0,0,0,2-1.25l10.48-37.26A1.74,1.74,0,0,0,422.05,128Z" transform="translate(-302.22 -79.51)"/><path class="cls-2" d="M417.52,126.85h0a1.6,1.6,0,0,0-2,1.18l-10,35.64a1.7,1.7,0,0,0,1,2.12h0a1.61,1.61,0,0,0,2-1.18l10-35.64A1.72,1.72,0,0,0,417.52,126.85Z" transform="translate(-302.22 -79.51)"/><path class="cls-2" d="M412.5,126.13h0a1.54,1.54,0,0,0-1.95,1.07l-9.31,33.28a1.65,1.65,0,0,0,1.09,2h0a1.54,1.54,0,0,0,1.95-1.07l9.31-33.28A1.66,1.66,0,0,0,412.5,126.13Z" transform="translate(-302.22 -79.51)"/><path class="cls-2" d="M426.63,129.17h0a1.58,1.58,0,0,0-2,1.14l-9.75,34.77a1.69,1.69,0,0,0,1.07,2.08h0a1.58,1.58,0,0,0,2-1.14l9.75-34.77A1.69,1.69,0,0,0,426.63,129.17Z" transform="translate(-302.22 -79.51)"/><path class="cls-2" d="M431.17,131.19h0a1.54,1.54,0,0,0-1.95,1.07l-9.31,33.28a1.66,1.66,0,0,0,1.09,2h0a1.54,1.54,0,0,0,1.95-1.07l9.31-33.28A1.65,1.65,0,0,0,431.17,131.19Z" transform="translate(-302.22 -79.51)"/><path class="cls-1" d="M542.33,444.92a135.73,135.73,0,0,0,68.23,10.55L626.39,410l1.31,43.3a79.29,79.29,0,0,0,67.52-5.68q-9.68-66-19.36-132a197.07,197.07,0,0,1-91-5.86Z" transform="translate(-302.22 -79.51)"/><line class="cls-4" x1="240.77" y1="359.4" x2="310.78" y2="371.33"/><line class="cls-4" x1="324.35" y1="370.16" x2="394.55" y2="362.21"/><path class="cls-4" d="M579.92,322.65a348.7,348.7,0,0,0,49.64,7.18,347.63,347.63,0,0,0,49.77,0" transform="translate(-302.22 -79.51)"/><path class="cls-2" d="M667.89,426.1a5.67,5.67,0,0,0,1,1.77,6.11,6.11,0,0,0,2,1.65,11.16,11.16,0,0,1-4.88,4.22c-3,1.29-6.75,1.13-7,.16-.2-.64,1.2-1.37,5.13-4.57C665.74,428,667.05,426.84,667.89,426.1Z" transform="translate(-302.22 -79.51)"/><path class="cls-2" d="M668.44,424.54a4.13,4.13,0,0,0,2.52,4.28,3.06,3.06,0,0,0,1.68.25c1.67-.23,3.1-2,2.79-2.94-.24-.79-1.4-.42-2.48-1.58s-.78-2.46-1.62-2.7c-.65-.19-1.37.43-1.74.75A3.63,3.63,0,0,0,668.44,424.54Z" transform="translate(-302.22 -79.51)"/><path class="cls-3" d="M662.43,430.3" transform="translate(-302.22 -79.51)"/><path class="cls-2" d="M680.54,417.21h0a.39.39,0,0,0-.56,0l-6.52,6.54a.41.41,0,0,0,0,.58h0a.39.39,0,0,0,.56,0l6.52-6.54A.41.41,0,0,0,680.54,417.21Z" transform="translate(-302.22 -79.51)"/><path class="cls-2" d="M679.74,416.44h0a.38.38,0,0,0-.55,0L673,422.71a.42.42,0,0,0,0,.57h0a.38.38,0,0,0,.55,0l6.24-6.26A.41.41,0,0,0,679.74,416.44Z" transform="translate(-302.22 -79.51)"/><path class="cls-2" d="M678.77,415.7h0a.37.37,0,0,0-.53,0l-5.81,5.85a.39.39,0,0,0,0,.54h0a.37.37,0,0,0,.53,0l5.82-5.85A.4.4,0,0,0,678.77,415.7Z" transform="translate(-302.22 -79.51)"/><path class="cls-2" d="M681.36,418h0a.38.38,0,0,0-.54,0l-6.08,6.11a.4.4,0,0,0,0,.56h0a.38.38,0,0,0,.54,0l6.08-6.11A.4.4,0,0,0,681.36,418Z" transform="translate(-302.22 -79.51)"/><path class="cls-2" d="M682.07,418.93h0a.37.37,0,0,0-.53,0l-5.81,5.85a.39.39,0,0,0,0,.54h0a.37.37,0,0,0,.53,0l5.82-5.85A.4.4,0,0,0,682.07,418.93Z" transform="translate(-302.22 -79.51)"/></svg>