<?xml version="1.0" encoding="utf-8"?>
<!-- Generator: Adobe Illustrator 26.0.1, SVG Export Plug-In . SVG Version: 6.00 Build 0)  -->
<svg version="1.1" id="Layer_1" xmlns="http://www.w3.org/2000/svg" xmlns:xlink="http://www.w3.org/1999/xlink" x="0px" y="0px"
	 viewBox="0 0 2560 656" style="enable-background:new 0 0 2560 656;" xml:space="preserve">
<style type="text/css">
	.st0{fill:#5865F2;}
	.st1{opacity:0.1;fill:#FFFFFF;enable-background:new    ;}
	.st2{fill:#EE2A7B;}
	.st3{fill:#00AEEF;}
	.st4{fill:#FFF200;}
	.st5{fill:#2BB673;}
</style>
<rect class="st0" width="2560" height="656"/>
<path class="st1" d="M48.5,256.7c43-71.9,107.5-68.1,136.3-56.2c4.3,1.8,8.2,3.1,11.8,4.2c20.9,6.3,32.1,3,52.8,11.6
	c13.4,5.6,31.7,16.5,49.9,40.4"/>
<path class="st1" d="M1040.8,656c-103.4-47.3-185.2-90.1-239.9-119.8C598.7,426,527,362.8,401.3,365.7c-32.1,0.7-93,3.1-154.1,41.2
	c-84.4,52.5-134,148-138.1,249.1H1040.8z"/>
<path class="st1" d="M2148.8,284.6c-48.6-79.2-80.6-93.7-101.6-90.5c-16.7,2.6-19.9,15.5-52.4,28.6c-32.9,13.2-45.6,6.4-73,17.5
	c-15.2,6.1-35.8,18.2-56.3,44.4"/>
<path class="st1" d="M1454.3,147.4c43-30.4,71.4-36,89.9-34.7c14.8,1,17.6,6,46.4,11c29.1,5.1,40.4,2.4,64.6,6.7
	c13.4,2.4,31.7,7,49.9,17.1"/>
<path class="st1" d="M1642.4,656c36.7-117.6,89.4-163.8,134.9-182.5c0,0,91-37.4,496.8,182.5l0,0"/>
<path class="st2" d="M316.5,115.6c-0.1,3.6-0.7,12.1-6.3,20.9c-7.3,11.4-18.2,15.4-21.2,16.4c10.1-4.3,21.3-2.6,28.5,4.5
	c8.7,8.5,7.4,20.5,7.2,22c0-3.2,0.6-13.6,8.2-23.6c7.1-9.3,16.2-12.7,19.3-13.7c-3.5,0.5-8.2,0.6-13.2-0.9
	C322.5,136,317.1,117.9,316.5,115.6z"/>
<path class="st3" d="M1819.1,19.7c-2.2,2.8-8,9.2-17.8,12.6c-12.8,4.5-23.8,1-26.8-0.1c10.6,2.8,18.4,11.1,19.8,21
	c1.7,12-6.7,20.7-7.8,21.8c2-2.5,8.8-10.4,21-13.6c11.3-3,20.6-0.1,23.7,1.1c-3.1-1.8-6.8-4.6-9.9-8.9
	C1811.2,39.5,1818.1,21.9,1819.1,19.7z"/>
<path class="st4" d="M1885.2,433.4c2.1,2.1,7.4,6.9,16,9.7c11.3,3.7,20.7,1.6,23.4,0.9c-9.1,1.6-15.7,7.3-16.5,14.4
	c-1,8.6,6.6,15.1,7.7,16c-1.9-1.9-8.1-7.8-18.8-10.5c-10.1-2.6-17.9-0.8-20.6-0.1c2.6-1.2,5.8-3,8.3-6
	C1892.8,448,1886.2,435.1,1885.2,433.4z"/>
<path class="st5" d="M688,557.3c0,1.8-0.3,6.1-3.2,10.5c-3.7,5.7-9.1,7.7-10.6,8.2c5-2.2,10.7-1.3,14.3,2.2c4.4,4.2,3.7,10.2,3.6,11
	c0-1.6,0.3-6.8,4.1-11.8c3.6-4.7,8.1-6.3,9.7-6.8c-1.8,0.2-4.1,0.3-6.6-0.5C691,567.5,688.3,558.4,688,557.3z"/>
</svg>
