<?xml version="1.0" encoding="utf-8"?>
<!-- Generator: Adobe Illustrator 26.0.1, SVG Export Plug-In . SVG Version: 6.00 Build 0)  -->
<svg version="1.1" id="Layer_1" xmlns="http://www.w3.org/2000/svg" xmlns:xlink="http://www.w3.org/1999/xlink" x="0px" y="0px"
	 viewBox="0 0 768 512" style="enable-background:new 0 0 768 512;" xml:space="preserve">
<style type="text/css">
	.st0{fill-rule:evenodd;clip-rule:evenodd;fill:#5865F2;}
	.st1{fill:#5865F2;}
</style>
<g>
	<path class="st0" d="M177.5,11.6L53.8,43.7c-23.6,6.1-37.7,30.2-31.6,53.7l30.4,117.2c6.1,23.6,30.2,37.7,53.7,31.6L230,214.1
		c23.6-6.1,37.7-30.2,31.6-53.7L231.2,43.2C225.1,19.6,201,5.5,177.5,11.6z M164.7,216.7c-48.5,12.6-98-16.5-110.6-65
		s16.5-98,65-110.6s98,16.5,110.6,65C242.3,154.6,213.1,204.1,164.7,216.7z"/>
	<path class="st0" d="M106.6,174.2c-0.8,3-0.9,7.3-0.2,9.7c2.2,8.6,11.2,13.8,19.8,11.6l27.5-7.1l-8.6-33.3l-35.9,9.3L106.6,174.2z"
		/>
	<path class="st0" d="M105,67.6c-5.7,1.5-9.7,5.4-11.3,11.1L86,105.9l33.2,9.2l9.9-35.4l-7.4-7.2C116.8,67.6,111.2,66,105,67.6z"/>
	<path class="st0" d="M111.8,141.7l11.8,3.2l-23.5-24.6l-32.8,9.2l11.6,3.1l-5,18.2c-0.3,1.2-0.4,3,0,4.3c0.4,1.4,1.2,2.7,2.1,3.6
		l27.3,27.5c-0.4-1-0.6-1.8-0.8-2.4c-0.7-2.6-0.5-7,0.3-10.1L111.8,141.7z"/>
	<path class="st0" d="M166.7,113.1l25.8,26.1l10-2.6c3.2-0.8,6.2-2.4,8.1-4.2c4.1-4,6.1-10.6,4.7-16c-0.7-2.7-2.1-5.1-4.1-7.1
		l-19.9-20.1L166.7,113.1z"/>
	<path class="st0" d="M171.4,148.6l-3-11.8l-9.6,32.6l24.3,23.8l-3-11.6l17.7-4.6c3.2-0.8,5.5-3,6.4-6l10.3-37.4
		c-2.5,3.2-6,5.4-10.6,6.6L171.4,148.6z"/>
	<path class="st0" d="M172.1,93.9l8.6-32.8l-8.5,8.5l-13.3-13.3c-2.2-2.2-5.1-2.9-8.4-2L113.3,64c4,0.6,7.8,2.5,11,5.8l23.5,23.8
		l-8.7,8.3L172.1,93.9z"/>
</g>
<g>
	<path class="st0" d="M162.4,416.6l-7.8-2.8c-2.6-0.9-5.4,0.4-6.3,3l-2.7,7.8c-0.9,2.6,0.4,5.4,3,6.3l7.8,2.8c2.6,0.9,5.4-0.4,6.3-3
		l2.7-7.8C166.3,420.3,165,417.5,162.4,416.6z"/>
	<path class="st0" d="M205.5,451.1l7.8,2.8c2.6,0.9,5.4-0.4,6.3-3l2.7-7.8c0.9-2.6-0.4-5.4-3-6.3l-7.8-2.8c-2.6-0.9-5.4,0.4-6.3,3
		l-2.7,7.8C201.6,447.4,202.9,450.2,205.5,451.1z"/>
	<path class="st0" d="M133.9,406.5l-7.8-2.8c-2.6-0.9-5.4,0.4-6.3,3l-2.7,7.8c-0.9,2.6,0.4,5.4,3,6.3l7.8,2.8c2.6,0.9,5.4-0.4,6.3-3
		l2.7-7.8C137.8,410.3,136.5,407.4,133.9,406.5z"/>
	<path class="st0" d="M190.9,426.7l-7.8-2.8c-2.6-0.9-5.4,0.4-6.3,3l-2.7,7.8c-0.9,2.6,0.4,5.4,3,6.3l7.8,2.8c2.6,0.9,5.4-0.4,6.3-3
		l2.7-7.8C194.8,430.4,193.5,427.6,190.9,426.7z"/>
	<path class="st0" d="M261.8,286.9l-75.5-26.7c-37.3-13.2-78.3,6.3-91.5,43.6L68,379.3c-13.2,37.3,6.3,78.3,43.6,91.5l75.5,26.7
		c37.3,13.2,78.3-6.3,91.5-43.6l26.7-75.5C318.6,341,299.1,300.1,261.8,286.9z M162.5,294.6c1.5,0.5,2.9,1.3,4.2,2.2
		c6.1-7.9,16.5-10.9,25.9-7.6c5.2,1.9,9.6,5.6,12.3,10.4c5.5-4.4,13-5.6,19.6-3.3c10.7,3.8,16.3,15.5,12.5,26.3
		c-3.8,10.7-15.5,16.3-26.2,12.5c-0.4-0.2-0.9-0.3-1.3-0.5c-3.7,3.8-9.2,5-14.1,3.3c-2.4-0.9-4.5-2.4-6.1-4.4
		c-4,0.8-8.2,0.5-12.1-0.9c-4.5-1.6-8.3-4.5-11-8.4c-4.4,2.9-9.9,3.6-14.9,1.9c-8.7-3.1-13.3-12.6-10.2-21.3
		C144.2,296.1,153.8,291.6,162.5,294.6z M226.8,473.4c-1.1,3.1-4.6,4.8-7.7,3.7L99.8,434.8c-3.1-1.1-4.8-4.6-3.7-7.7l34.2-96.7
		c1.1-3.1,4.6-4.8,7.7-3.7l0,0l16.8,6c3.1,1.1,4.8,4.6,3.7,7.7l-15.5,43.8l38.9-1.4l-4.9,13.9l38.9-1.4l-4.8,13.5l38.9-1.4
		L226.8,473.4z"/>
</g>
<g>
	<path class="st1" d="M704.8,87.9L499.3,27.2C454.8,14.1,408,39.6,394.9,84.1l-60.6,205.6c-2.6,8.9-3.7,17.8-3.4,26.6
		c6,2.7,18.7,6.4,24.1,6.8c12.2,0.9,26.1-1.3,38.4-6.3c2.2-0.9,7.1-3.3,10.9-5.3l6.9-3.7l-6.6-12.2l-6.6-12.2l5.9-5
		c3.3-2.7,6.1-5,6.3-5c0.2,0,3.6,6,7.6,13.3l7.2,13.3l5.2-2.8l5.2-2.8l-7.9-14.5l-7.9-14.5l5.7-4.8c3.1-2.6,5.9-4.9,6.2-5.1
		c0.3-0.2,3.8,5.7,9.2,15.5l8.6,15.8l5.3-2.9l5.3-2.9l-9.3-17l-9.3-17l6-5l6-5l10.1,18c5.5,9.9,10.2,18.1,10.4,18.2
		c0.2,0.1,2.5-1,5.3-2.5l5-2.8l-10.6-19.5l-10.6-19.5l5.8-5c3.2-2.8,6.1-5,6.3-4.9c0.3,0.1,5.6,9.4,11.7,20.7l11.2,20.6l5.2-2.8
		l5.2-2.8l-11.9-21.8L484.8,211l5.1-4.4c2.8-2.4,12.5-10.6,21.6-18.1l16.5-13.8l7.4-2.9l7.4-2.9l14,25.6l14,25.6l-20,10.9l-20,10.9
		l9.3,17.2c5.1,9.4,9.5,17.2,9.8,17.3c0.3,0.1,9.3-4.7,20.1-10.6l19.7-10.7l14,25.7c7.7,14.2,14,25.9,13.9,26c0,0.1-3,2.3-6.5,4.9
		l-6.5,4.6l-26.4,8.2c-14.5,4.5-26.5,8.1-26.7,8.1c-0.2-0.1-5.7-9.9-12.2-21.8l-11.8-21.7l-5.3,2.9l-5.3,2.9l11.3,20.7
		c6.2,11.4,11.2,20.9,11.2,21c-0.1,0.4-14.4,4.6-15,4.4c-0.2-0.1-5.1-8.8-10.9-19.4L503,302.2l-5.2,2.8l-5.2,2.8l10,18.4l10,18.4
		l-7.5,2.4l-7.5,2.4l-9.3-17.1l-9.3-17.1l-5.3,2.9l-5.3,2.9l8.7,16l8.7,16l-7.5,2.3l-7.5,2.3l-8-14.6l-8-14.6l-5.2,2.8l-5.2,2.8
		l7.4,13.5l7.4,13.5l-7.4,2.3c-4.1,1.3-7.6,2.3-7.8,2.2c-0.2-0.1-3.3-5.4-6.8-12l-6.5-11.9l-6.2,3.3C399.1,358.8,374.8,364,350,361
		c-1.3-0.2-3-0.5-4.9-0.8c10.5,15.8,26.4,28,46,33.8l205.6,60.6c44.5,13.1,91.2-12.3,104.4-56.8l60.6-205.6
		C774.8,147.7,749.3,101,704.8,87.9z M716.6,208.2c0.8,1.7,1.5,3.2,1.6,3.5c0,0.3-7.7,4.7-17.1,9.8l-17.1,9.4l-1.8-3.4l-1.8-3.4
		l17.4-9.5l17.4-9.5L716.6,208.2z M709.5,194.7l1.7,3l-17.2,9.4c-9.4,5.2-17.3,9.3-17.4,9.3c-0.1,0-1-1.5-2-3.4l-1.7-3.3l17.1-9.1
		c9.4-5,17.3-9,17.5-9C707.7,191.7,708.6,193,709.5,194.7z M701.6,180.6l1.7,3.2l-16.8,9.4c-9.2,5.2-17.1,9.4-17.4,9.3
		c-0.3,0-1.3-1.4-2.3-3.2l-1.7-3.1l17.3-9.4l17.3-9.4L701.6,180.6z M694.2,167.1l1.8,3.2l-17.2,9.3c-9.4,5.1-17.3,9.3-17.4,9.3
		c-0.1,0-1-1.6-2-3.4l0,0l-1.7-3.3l17.4-9.2l17.4-9.2L694.2,167.1z M684.8,149.9l1.8,3.3l1.8,3.3l-17.3,9.4l-17.3,9.4l-1.8-3.4
		l-1.8-3.4l12.8-6.9c7.1-3.8,14.9-8,17.4-9.3L684.8,149.9z M678.9,139.1l1.9,3.4l-17.2,9.3c-9.4,5.1-17.3,9.3-17.4,9.3
		c-0.1,0-1-1.5-2-3.3l0,0l-1.7-3.3l17.3-9.4l17.3-9.4L678.9,139.1z M564.6,196.9l-11.1-20.4l56.2-30.6l56.2-30.6l3.7,6.8l3.7,6.8
		l-19.8,10.8l-19.8,10.8l3.8,7l3.8,7l-29.4,16l-29.4,16l2,7.9l2,7.9l-4.9,2.7c-2.7,1.5-5.1,2.6-5.4,2.6
		C575.9,217.4,570.7,208.1,564.6,196.9z M582.8,250c-13.2,7.2-24.1,13-24.2,13c-0.1,0-2.7-4.7-5.8-10.3l-5.6-10.2l24-13
		c13.2-7.2,24-13.2,24.1-13.5c0.1-0.2-0.8-3.8-1.9-8l-2-7.6l26.5-14.4c14.6-7.9,26.7-14.4,27-14.3s6.3,10.9,13.5,24.1l13.1,24
		l-26.7,14.6L618,248.8l-5.6-6l-5.6-6L582.8,250z M673.8,263.3c-30.8,16.8-56.2,30.5-56.3,30.5c-0.1,0-5.3-9.4-11.5-20.8l0,0
		l-11.3-20.7l5-2.7c2.8-1.5,5.2-2.7,5.4-2.6c0.2,0.1,2.8,2.7,5.7,5.9l5.3,5.8l29.4-16l29.4-16l3.9,7.1l3.9,7.1l19.7-10.7
		c10.8-5.9,19.8-10.7,19.9-10.6c0.1,0,1.9,3.1,3.8,6.7l3.6,6.6L673.8,263.3z"/>
</g>
</svg>
