<?xml version="1.0" encoding="utf-8"?>
<!-- Generator: Adobe Illustrator 26.0.1, SVG Export Plug-In . SVG Version: 6.00 Build 0)  -->
<svg version="1.1" id="Layer_1" xmlns="http://www.w3.org/2000/svg" xmlns:xlink="http://www.w3.org/1999/xlink" x="0px" y="0px"
	 viewBox="0 0 633.9 411.6" style="enable-background:new 0 0 633.9 411.6;" xml:space="preserve">
<style type="text/css">
	.st0{fill:#5865F2;}
</style>
<g>
	
		<ellipse transform="matrix(0.3138 -0.9495 0.9495 0.3138 106.7572 546.7444)" class="st0" cx="431.7" cy="199.5" rx="6.6" ry="6.6"/>
	
		<ellipse transform="matrix(0.3139 -0.9495 0.9495 0.3139 146.0874 534.2739)" class="st0" cx="442.7" cy="166.1" rx="6.6" ry="6.6"/>
	<path class="st0" d="M592.1,50.8l-135-44.5c-29.1-9.6-60.4,6.1-69.9,35l-44.3,134.2c-9.5,28.9,6.3,60.1,35.4,69.7l135,44.5
		c29.1,9.6,60.4-6.1,69.9-35l44.3-134.2C637,91.6,621.2,60.4,592.1,50.8z M565.2,86.5l-69.7-23c-3.6-1.2-7.5,0.8-8.7,4.3l-2,6
		c-1.2,3.6,0.8,7.5,4.4,8.7l69.7,23l-3.5,10.6l-69.7-23c-3.6-1.2-7.5,0.8-8.7,4.3l-2,6c-1.2,3.6,0.8,7.5,4.4,8.7l69.7,23
		l-37.8,114.7c0,0,0,0,0,0c-1.6,4.9-7,7.6-12,6l-89.7-29.6c-5-1.6-7.7-7-6.1-11.9l58.8-178.3c0,0,0,0,0,0c1.6-4.9,7-7.6,12-6
		l89.7,29.6c5,1.6,7.7,7,6.1,11.9L565.2,86.5z"/>
	<path class="st0" d="M457.4,122.1c-3.6-1.2-7.4,0.7-8.6,4.3c-1.2,3.6,0.8,7.4,4.3,8.6c3.6,1.2,7.4-0.7,8.6-4.3
		C462.9,127.1,461,123.3,457.4,122.1z"/>
</g>
<g>
	<path class="st0" d="M225.9,80.5L69.3,103.1c-41.8,6-70.7,44.8-64.7,86.5l22.6,156.6c6,41.8,44.8,70.7,86.5,64.7l156.6-22.6
		c41.8-6,70.7-44.8,64.7-86.5l-22.6-156.6C306.4,103.4,267.6,74.4,225.9,80.5z M280.3,230.6c1.8,12.4-6.8,23.9-19.2,25.7l-76.4,11
		l6.6,45.6l61.6-8.9c4.8-0.7,9.3,2.6,10,7.4l0.1,1c0.7,4.8-2.6,9.3-7.4,10l-145.4,21c-4.8,0.7-9.3-2.6-10-7.4l-0.1-1
		c-0.7-4.8,2.6-9.3,7.4-10l67.1-9.7l-6.6-45.6l-76.4,11c-12.4,1.8-23.9-6.8-25.7-19.2L53.3,174c-1.8-12.4,6.8-23.9,19.2-25.7
		L242,123.8c12.4-1.8,23.9,6.8,25.7,19.2L280.3,230.6z"/>
	
		<rect x="73.4" y="152" transform="matrix(0.9898 -0.1428 0.1428 0.9898 -27.1684 25.8872)" class="st0" width="186.9" height="100.5"/>
</g>
</svg>
