<?xml version="1.0" encoding="utf-8"?>
<!-- Generator: Adobe Illustrator 26.0.1, SVG Export Plug-In . SVG Version: 6.00 Build 0)  -->
<svg version="1.1" id="Layer_1" xmlns="http://www.w3.org/2000/svg" xmlns:xlink="http://www.w3.org/1999/xlink" x="0px" y="0px"
	 viewBox="0 0 768 512" style="enable-background:new 0 0 768 512;" xml:space="preserve">
<style type="text/css">
	.st0{fill:#5865F2;}
	.st1{fill-rule:evenodd;clip-rule:evenodd;fill:#5865F2;}
	.st2{fill:none;stroke:#5865F2;stroke-width:10;stroke-miterlimit:10;}
	.st3{fill:#FFFFFF;}
</style>
<g>
	<g>
		<g>
			<g>
				<path class="st0" d="M88.45,392c-1.88,3.36-3.38,8.43-3.38,11.62c0,0.74,0,1.68,0.18,2.99l-23.52-40.27
					c-0.75-1.31-1.31-3.18-1.31-4.87c0-1.69,0.56-3.75,1.31-5.06l11.29-19.67l-12.6-7.11l41.02-0.76l19.94,35.77l-12.79-7.3
					L88.45,392z M106.52,278.5c3.57-6.19,9.41-9.56,16.55-9.56c7.72,0,13.74,3.56,18.06,10.86l6.4,10.67l-22.2,38.22L89.4,307.9
					L106.52,278.5z M109.14,424.4c-10.72,0-19.56-8.8-19.56-19.48c0-3,1.32-8.06,3.2-11.24l6.01-10.67h44.59v41.39L109.14,424.4
					L109.14,424.4z M144.9,277.37c-2.82-4.86-6.58-8.24-11.1-10.12h46.28c4.14,0,7.33,1.69,9.22,4.88l11.48,19.48l12.41-7.31
					l-19.95,35.59l-40.82-0.57l12.6-7.11L144.9,277.37z M216.21,383.38c5.64,0,10.35-1.5,14.29-4.49l-23.33,40.45
					c-1.88,3.18-5.26,5.06-9.21,5.06h-22.02v14.42l-21.07-35.02l21.07-35.03v14.61L216.21,383.38L216.21,383.38z M234.26,349.67
					c1.7,3,2.64,6.18,2.64,9.55c0,6.74-4.33,13.86-10.35,17.23c-2.83,1.51-6.78,2.45-10.72,2.45H203.4l-22.19-38.22l35.93-20.42
					L234.26,349.67z"/>
			</g>
		</g>
	</g>
</g>
<g id="layer1" transform="translate(417.94434,-503.86183)">
	<path id="path4402" class="st1" d="M-141.39,647.64c-2.07,0-3.75,1.68-3.75,3.75v63.66c0,2.07,1.68,3.75,3.75,3.75h78.53
		c2.07,0,3.75-1.68,3.75-3.75v-43.47l-22.48,8.88v-8.88l-22.48,8.88v-9.13l-22.48,8.88v-28.81c0-2.07-1.68-3.75-3.75-3.75H-141.39z
		 M-132.39,695.16h5.12c1.7,0,3.06,1.37,3.06,3.07v5.11c0,1.7-1.37,3.07-3.06,3.07h-5.12c-1.7,0-3.07-1.37-3.07-3.07v-5.11
		C-135.46,696.53-134.09,695.16-132.39,695.16z M-113.64,695.16h5.12c1.7,0,3.06,1.37,3.06,3.07v5.11c0,1.7-1.37,3.07-3.06,3.07
		h-5.12c-1.7,0-3.07-1.37-3.07-3.07v-5.11C-116.71,696.53-115.34,695.16-113.64,695.16z M-94.9,695.16h5.12
		c1.7,0,3.06,1.37,3.06,3.07v5.11c0,1.7-1.37,3.07-3.06,3.07h-5.12c-1.7,0-3.07-1.37-3.07-3.07v-5.11
		C-97.97,696.53-96.6,695.16-94.9,695.16z M-76.15,695.16h5.12c1.7,0,3.06,1.37,3.06,3.07v5.11c0,1.7-1.37,3.07-3.06,3.07h-5.12
		c-1.7,0-3.07-1.37-3.07-3.07v-5.11C-79.22,696.53-77.85,695.16-76.15,695.16z M-97.05,611.94c-4.39,0-8.47,2.26-10.8,5.98
		c-2.6-2.27-5.93-3.52-9.38-3.53c-6.17,0.01-11.63,3.97-13.56,9.83c-0.96-0.29-1.95-0.43-2.94-0.44c-5.73,0-10.38,4.65-10.38,10.38
		c0,5.73,4.64,10.38,10.38,10.38c3.27,0,6.35-1.55,8.31-4.17c2.4,1.69,5.26,2.6,8.2,2.61c2.55-0.01,5.05-0.69,7.25-1.99
		c1.34,0.86,2.9,1.31,4.49,1.31c3.26-0.01,6.21-1.9,7.57-4.86c0.29,0.02,0.58,0.03,0.87,0.03c7.05,0,12.76-5.71,12.76-12.76
		C-84.29,617.65-90.01,611.94-97.05,611.94L-97.05,611.94z"/>
</g>
<g>
	<circle class="st2" cx="559.68" cy="318.45" r="56.4"/>
	<circle class="st2" cx="560.56" cy="318.11" r="36.68"/>
	<circle class="st2" cx="559.68" cy="318.11" r="17.64"/>
	<polygon class="st3" points="552.5,326.65 580.33,222.79 656.36,298.82 	"/>
</g>
<path class="st2" d="M562.41,316.75l16.88-45.51c0.79,4,2.97,11.9,9.7,18.7c6.86,6.93,14.92,9.15,18.94,9.94
	C592.75,305.49,577.58,311.12,562.41,316.75z"/>
<circle class="st2" cx="147.53" cy="351.48" r="109.12"/>
</svg>
