<svg id="Layer_1" data-name="Layer 1" xmlns="http://www.w3.org/2000/svg" viewBox="0 0 633.92 411.64"><defs><style>.cls-1{fill:none;stroke:#5865f2;stroke-miterlimit:10;stroke-width:10px;}.cls-2{fill:#5865f2;}</style></defs><path class="cls-1" d="M153.7,215.38a7.1,7.1,0,0,0,7.11,7.1H250a7.1,7.1,0,1,0,0-14.2h-89.2A7.1,7.1,0,0,0,153.7,215.38Z" transform="translate(-33.18 -52.12)"/><path class="cls-1" d="M200.75,192.94v10.67a4.66,4.66,0,1,0,9.32,0V192.94a4.66,4.66,0,0,0-9.32,0Z" transform="translate(-33.18 -52.12)"/><path class="cls-1" d="M278.14,103.39H136.77a7.1,7.1,0,0,0-7.11,7.1v70.68a7.11,7.11,0,0,0,7.11,7.11H278.14a7.1,7.1,0,0,0,7.1-7.11V110.49C285.24,110,285.19,107.5,278.14,103.39Z" transform="translate(-33.18 -52.12)"/><path class="cls-1" d="M567.77,158.31H497.09a7.1,7.1,0,0,0-7.11,7.1V306.78a7.11,7.11,0,0,0,7.11,7.11h70.68a7.1,7.1,0,0,0,7.1-7.11V165.41A7.1,7.1,0,0,0,567.77,158.31ZM505.25,294.57a3.74,3.74,0,1,1,3.74-3.74A3.74,3.74,0,0,1,505.25,294.57Zm0-20a3.74,3.74,0,1,1,3.74-3.74A3.74,3.74,0,0,1,505.25,274.57ZM567,196.25H516.24c-2.23,0-4-.33-4-.74s1.81-.75,4-.75H567c2.23,0,4,.34,4,.75S569.23,196.25,567,196.25Zm0-15.33H516.24c-2.23,0-4-.34-4-.75s1.81-.75,4-.75H567c2.23,0,4,.34,4,.75S569.23,180.92,567,180.92Z" transform="translate(-33.18 -52.12)"/><path class="cls-2" d="M271.73,446c0,3.51-4,6.27-11.13,6.27s-11.19-2.76-11.19-6.3c0-2.4,1.08-4.14,5-5-3.51-.78-4.56-2.37-4.56-4.35,0-3.21,3.84-5.79,10.8-5.79s10.71,2.58,10.71,5.79c0,2-1.05,3.57-4.53,4.35C270.65,441.84,271.73,443.61,271.73,446Zm-8.43-1c0-1.14-1-1.92-2.7-1.92s-2.73.78-2.73,1.92,1,1.83,2.73,1.83S263.3,446,263.3,445Zm-5.1-6.72c0,1.05.87,1.83,2.4,1.83s2.31-.78,2.31-1.83-.84-1.8-2.31-1.8S258.2,437.19,258.2,438.27Z" transform="translate(-33.18 -52.12)"/><path class="cls-2" d="M308.63,451.5H297.14l-5.67-10v10H282v-21h9.51v7.95l6-7.95h11.1L301,439.74Z" transform="translate(-33.18 -52.12)"/><path class="cls-2" d="M261.75,456.83h2.56v6.67h-3.05v-4.06L259,460.56V458.2Z" transform="translate(-33.18 -52.12)"/><path class="cls-2" d="M272.72,461.27c0,1.45-1.45,2.49-3.7,2.49s-3.86-1.06-3.86-3.33c0-2.49,1.85-3.8,4.39-3.8a6.17,6.17,0,0,1,2.84.59v2a4.14,4.14,0,0,0-2.2-.58c-1.33,0-2,.68-2.06,1.57a2.3,2.3,0,0,1,2.13-1A2.17,2.17,0,0,1,272.72,461.27Zm-2.84-.07a.75.75,0,0,0-.84-.73.74.74,0,1,0,0,1.48A.77.77,0,0,0,269.88,461.2Z" transform="translate(-33.18 -52.12)"/><path class="cls-2" d="M273.32,460.23c0-2.1,1.64-3.57,4.1-3.57s4.08,1.47,4.08,3.57-1.59,3.46-4.08,3.46S273.32,462.26,273.32,460.23Zm5.06,0c0-.73-.29-1.26-1-1.26s-1,.51-1,1.26.34,1.24,1,1.24S278.38,461,278.38,460.23Z" transform="translate(-33.18 -52.12)"/><path class="cls-2" d="M287.65,456.5h3.15v7h-3.15v-2.57H285.5v2.57h-3.17v-7h3.17v2.38h2.15Z" transform="translate(-33.18 -52.12)"/><path class="cls-2" d="M295.63,461.52h3.22v2H291.6v-1.87l3.09-2.06h-3v-2h7v2Z" transform="translate(-33.18 -52.12)"/><path class="cls-2" d="M592.88,53.11h7.68v20h-9.15V60.94l-6.84,3.36V57.22Z" transform="translate(-33.18 -52.12)"/><path class="cls-2" d="M625.82,66.43c0,4.35-4.35,7.47-11.13,7.47-6.45,0-11.58-3.18-11.58-10,0-7.47,5.55-11.4,13.17-11.4a18.66,18.66,0,0,1,8.55,1.77v6a12.53,12.53,0,0,0-6.63-1.74c-4,0-6,2-6.18,4.71,1-1.89,3.33-3.09,6.39-3.09C622.58,60.13,625.82,62.38,625.82,66.43Zm-8.55-.21A2.26,2.26,0,0,0,614.75,64a2.23,2.23,0,1,0,0,4.44A2.32,2.32,0,0,0,617.27,66.22Z" transform="translate(-33.18 -52.12)"/><path class="cls-2" d="M662.69,73.12H651.2l-5.67-10v10H636v-21h9.51v8l6-8h11.1l-7.56,9.24Z" transform="translate(-33.18 -52.12)"/><path class="cls-2" d="M584.32,84.39v-2a6.39,6.39,0,0,0,3.31.94c.66,0,.94-.11.94-.35s-.17-.33-.7-.41l-1-.15c-1.79-.26-2.67-1-2.67-2.16,0-1.36,1.24-2.37,4-2.37a6.74,6.74,0,0,1,3.27.69v2a6.14,6.14,0,0,0-2.78-.6c-.88,0-1.12.13-1.12.35s.11.27.72.34l1,.12c1.67.2,2.6.78,2.6,2.08,0,1.56-1.61,2.53-4,2.53A7.16,7.16,0,0,1,584.32,84.39Z" transform="translate(-33.18 -52.12)"/><path class="cls-2" d="M592.66,82V78.12h3.16v3.82a1,1,0,0,0,2.06,0V78.12H601V82c0,2.11-1.6,3.39-4.19,3.39S592.66,84.08,592.66,82Z" transform="translate(-33.18 -52.12)"/><path class="cls-2" d="M607.46,78.11c2,0,3.06,1.09,3.06,2.69s-1.21,2.68-3.52,2.68h-1.83v1.64H602v-7Zm-1.35,3.64c.77,0,1.16-.32,1.16-.83s-.36-.82-1-.82h-1.08v1.65Z" transform="translate(-33.18 -52.12)"/><path class="cls-2" d="M616.63,78.11c2,0,3.06,1.09,3.06,2.69s-1.21,2.68-3.52,2.68h-1.83v1.64h-3.17v-7Zm-1.35,3.64c.77,0,1.16-.32,1.16-.83s-.36-.82-1-.82h-1.08v1.65Z" transform="translate(-33.18 -52.12)"/><path class="cls-2" d="M620,81.57c0-2.16,1.83-3.69,4.87-3.69s4.86,1.53,4.86,3.69-1.84,3.79-4.87,3.79S620,83.65,620,81.57Zm6.31,0a1.45,1.45,0,0,0-2.9,0,1.45,1.45,0,0,0,2.9,0Z" transform="translate(-33.18 -52.12)"/><path class="cls-2" d="M639.08,85.12h-3.62l-1.76-2.78v2.78h-3.17v-7h5.67c1.75,0,2.85.93,2.85,2.41a2.09,2.09,0,0,1-1.72,2.16Zm-5.38-3.53h1.09c.63,0,1-.27,1-.76s-.34-.71-.94-.71H633.7Z" transform="translate(-33.18 -52.12)"/><path class="cls-2" d="M647.29,80.48h-2.35v4.64h-3.17V80.48h-2.4V78.12h7.92Z" transform="translate(-33.18 -52.12)"/><path class="cls-2" d="M651.12,83.08h3.75v2H648v-7h6.9v2h-3.73v.64h3.56v1.57h-3.56Z" transform="translate(-33.18 -52.12)"/><path class="cls-2" d="M655.82,85.12v-7h4.27c3.1,0,4.61,1.48,4.61,3.45s-1.44,3.55-4.9,3.55Zm3.17-2h.75a1.41,1.41,0,0,0,1.56-1.52,1.31,1.31,0,0,0-1.43-1.42H659Z" transform="translate(-33.18 -52.12)"/><path class="cls-2" d="M630.56,425.77v4.92h-3.24v4H619v-4H606.77v-5.55l8.52-10.47h12v11.1Zm-16.11,0H619v-5.85Z" transform="translate(-33.18 -52.12)"/><path class="cls-2" d="M667.09,434.65H655.61l-5.67-10v10h-9.51v-21h9.51v8l6-8h11.1l-7.57,9.24Z" transform="translate(-33.18 -52.12)"/><path class="cls-2" d="M623.64,444.75c0,1.26-1.41,2.09-3.72,2.09a6.45,6.45,0,0,1-3-.62v-1.64a5.11,5.11,0,0,0,2.24.42c.8,0,1.17-.2,1.17-.53s-.16-.44-.78-.44h-2l.28-1.31h1.7c.62,0,.8-.17.8-.43s-.32-.47-1.12-.47a5,5,0,0,0-2.23.47v-2a8.66,8.66,0,0,1,3.06-.53c2.25,0,3.44.81,3.44,1.88,0,.7-.47,1.22-1.44,1.39C623.08,443.3,623.64,443.91,623.64,444.75Z" transform="translate(-33.18 -52.12)"/><path class="cls-2" d="M631.8,444.42c0,1.45-1.45,2.49-3.71,2.49s-3.85-1.06-3.85-3.33c0-2.49,1.84-3.8,4.38-3.8a6.22,6.22,0,0,1,2.85.59v2a4.18,4.18,0,0,0-2.21-.58c-1.33,0-2,.68-2.06,1.57a2.3,2.3,0,0,1,2.13-1C630.72,442.32,631.8,443.07,631.8,444.42Zm-2.85-.07a.75.75,0,0,0-.84-.73.74.74,0,1,0,0,1.48A.77.77,0,0,0,629,444.35Z" transform="translate(-33.18 -52.12)"/><path class="cls-2" d="M632.4,443.38c0-2.1,1.64-3.57,4.09-3.57s4.09,1.47,4.09,3.57-1.59,3.46-4.09,3.46S632.4,445.41,632.4,443.38Zm5.05,0c0-.73-.29-1.26-1-1.26s-1,.51-1,1.26.34,1.24,1,1.24S637.45,444.11,637.45,443.38Z" transform="translate(-33.18 -52.12)"/><path class="cls-2" d="M646.72,439.65h3.16v7h-3.16v-2.57h-2.15v2.57h-3.16v-7h3.16V442h2.15Z" transform="translate(-33.18 -52.12)"/><path class="cls-2" d="M654.7,444.67h3.23v2h-7.25v-1.87l3.08-2.06h-3v-2h7v2Z" transform="translate(-33.18 -52.12)"/><path class="cls-2" d="M351.64,59.17h9.48v30.2h-9.48V78.28h-6.45V89.37h-9.51V59.17h9.51V69.44h6.45Z" transform="translate(-33.18 -52.12)"/><path class="cls-2" d="M364.33,89.37V59.17h12.81c9.3,0,13.83,6.38,13.83,14.88,0,7.94-4.32,15.32-14.7,15.32Zm9.51-8.76h2.25c3.12,0,4.68-2.63,4.68-6.56,0-3.45-1.32-6.12-4.29-6.12h-2.64Z" transform="translate(-33.18 -52.12)"/><path class="cls-2" d="M427.84,89.37h-9L418,69.09l-3.6,20.28H405l-3.45-19.63-.66,19.63h-8.13l1.17-30.2h13.68l2.58,14.45,2.67-14.45H426.4Z" transform="translate(-33.18 -52.12)"/><path class="cls-2" d="M430.42,89.37V59.13h9.51V89.37Z" transform="translate(-33.18 -52.12)"/><path class="cls-2" d="M333.52,103.89c0,1.81-1.41,3-3.72,3a4.93,4.93,0,0,1-3-.89v-2.36a3.82,3.82,0,0,0,2.24.61c.81,0,1.18-.29,1.18-.76s-.16-.64-.78-.64h-2.06l.29-1.88h1.7c.62,0,.8-.24.8-.62s-.32-.67-1.12-.67a3.84,3.84,0,0,0-2.24.67v-2.8a6.36,6.36,0,0,1,3.07-.76c2.25,0,3.44,1.16,3.44,2.7a1.87,1.87,0,0,1-1.44,2A2.27,2.27,0,0,1,333.52,103.89Z" transform="translate(-33.18 -52.12)"/><path class="cls-2" d="M334,105a1.74,1.74,0,1,1,3.46,0,1.75,1.75,0,1,1-3.46,0Z" transform="translate(-33.18 -52.12)"/><path class="cls-2" d="M338,101.92c0-3,1.64-5.13,4.1-5.13s4.09,2.11,4.09,5.13-1.59,5-4.09,5S338,104.84,338,101.92Zm5.06,0c0-1-.29-1.81-1-1.81s-1,.73-1,1.81.34,1.78,1,1.78S343,103,343,101.92Z" transform="translate(-33.18 -52.12)"/><path class="cls-2" d="M349.41,105.57V102.7a5.08,5.08,0,0,0,3.31,1.35c.66,0,.94-.16.94-.51s-.17-.47-.7-.59l-1-.21a2.92,2.92,0,0,1-2.67-3.11c0-1.95,1.24-3.4,4-3.4a5.13,5.13,0,0,1,3.27,1V100a4.67,4.67,0,0,0-2.78-.86c-.88,0-1.12.19-1.12.5s.11.39.72.49l1,.17a2.71,2.71,0,0,1,2.6,3c0,2.25-1.61,3.64-3.95,3.64A5.61,5.61,0,0,1,349.41,105.57Z" transform="translate(-33.18 -52.12)"/><path class="cls-2" d="M363.3,96.54c2,0,3.06,1.57,3.06,3.87s-1.21,3.85-3.52,3.85H361v2.36h-3.17V96.54ZM362,101.78a1.07,1.07,0,0,0,1.16-1.2c0-.73-.36-1.18-1-1.18H361v2.38Z" transform="translate(-33.18 -52.12)"/><path class="cls-2" d="M370.18,103.69h3.75v2.93H367V96.56h6.9v2.93h-3.73v.92h3.56v2.26h-3.56Z" transform="translate(-33.18 -52.12)"/><path class="cls-2" d="M374.5,101.66c0-3,1.68-5.45,4.91-5.45a5.45,5.45,0,0,1,3.21,1v3.33a3.88,3.88,0,0,0-2.36-.79c-1.49,0-2.27.74-2.27,1.83s.82,1.85,2.26,1.85a3.5,3.5,0,0,0,2.38-.84v3.23a4.86,4.86,0,0,1-3.3,1.16C376.2,107,374.5,104.69,374.5,101.66Z" transform="translate(-33.18 -52.12)"/><path class="cls-2" d="M383.56,106.62V96.54h3.17v10.08Z" transform="translate(-33.18 -52.12)"/><path class="cls-2" d="M394.69,99.72H391v1h3.56v2.52H391v3.35h-3.17V96.56h6.9Z" transform="translate(-33.18 -52.12)"/><path class="cls-2" d="M395.52,106.62V96.54h3.17v10.08Z" transform="translate(-33.18 -52.12)"/><path class="cls-2" d="M399.45,101.66c0-3,1.68-5.45,4.91-5.45a5.45,5.45,0,0,1,3.21,1v3.33a3.88,3.88,0,0,0-2.36-.79c-1.49,0-2.27.74-2.27,1.83s.82,1.85,2.26,1.85a3.5,3.5,0,0,0,2.38-.84v3.23a4.86,4.86,0,0,1-3.3,1.16C401.15,107,399.45,104.69,399.45,101.66Z" transform="translate(-33.18 -52.12)"/><path class="cls-2" d="M413.85,106.62l-.31-1.57h-2.36l-.32,1.57h-3.1l2.31-10.06h4.68L417,106.62Zm-2.22-3.81h1.46l-.73-3.64Z" transform="translate(-33.18 -52.12)"/><path class="cls-2" d="M424.26,100h-2.35v6.67h-3.17V100h-2.4V96.56h7.92Z" transform="translate(-33.18 -52.12)"/><path class="cls-2" d="M424.92,106.62V96.54h3.17v10.08Z" transform="translate(-33.18 -52.12)"/><path class="cls-2" d="M428.85,101.52c0-3.11,1.83-5.31,4.87-5.31s4.86,2.2,4.86,5.31-1.84,5.44-4.87,5.44S428.85,104.51,428.85,101.52Zm6.31,0c0-1.19-.57-2-1.45-2s-1.45.76-1.45,2,.57,2,1.45,2S435.16,102.75,435.16,101.54Z" transform="translate(-33.18 -52.12)"/><path class="cls-2" d="M445.19,96.56h2.69v10.06H444L442,101v5.65h-2.7V96.56h3.91l1.94,5.6Z" transform="translate(-33.18 -52.12)"/><path class="cls-2" d="M33.18,313.89v-30.2H46c9.3,0,13.83,6.39,13.83,14.88,0,7.94-4.32,15.32-14.7,15.32Zm9.51-8.76h2.25c3.12,0,4.68-2.63,4.68-6.56,0-3.45-1.32-6.12-4.29-6.12H42.69Z" transform="translate(-33.18 -52.12)"/><path class="cls-2" d="M76.35,283.69h10.8l-9.48,21.18v9H67.32v-9l-9.51-21.18h10.8l3.84,9.88Z" transform="translate(-33.18 -52.12)"/><path class="cls-2" d="M106.11,283.69h8.07v30.2H102.66l-6-17v17h-8.1v-30.2h11.73l5.82,16.82Z" transform="translate(-33.18 -52.12)"/><path class="cls-2" d="M134,313.89l-.93-4.71H126l-1,4.71h-9.3l6.93-30.2h14l6.87,30.2Zm-6.66-11.43h4.38l-2.19-10.92Z" transform="translate(-33.18 -52.12)"/><path class="cls-2" d="M179.73,313.89h-9l-.84-20.28-3.6,20.28H156.9l-3.45-19.63-.66,19.63h-8.13l1.17-30.2h13.68l2.58,14.45,2.67-14.45h13.53Z" transform="translate(-33.18 -52.12)"/><path class="cls-2" d="M182.31,313.89V283.65h9.51v30.24Z" transform="translate(-33.18 -52.12)"/><path class="cls-2" d="M194.1,299c0-9,5-16.34,14.73-16.34a16.29,16.29,0,0,1,9.63,2.93v10a11.52,11.52,0,0,0-7.08-2.38c-4.47,0-6.81,2.2-6.81,5.48s2.46,5.57,6.78,5.57a10.51,10.51,0,0,0,7.14-2.55v9.71a14.55,14.55,0,0,1-9.9,3.49C199.2,314.92,194.1,308.11,194.1,299Z" transform="translate(-33.18 -52.12)"/><path class="cls-2" d="M114.53,321.08h3.16v10.06h-3.16v-3.69h-2.15v3.69h-3.17V321.08h3.17v3.42h2.15Z" transform="translate(-33.18 -52.12)"/><path class="cls-2" d="M118.76,331.14V321.08H123c3.1,0,4.61,2.13,4.61,5,0,2.64-1.44,5.1-4.9,5.1Zm3.17-2.92h.75c1,0,1.56-.88,1.56-2.18s-.44-2-1.43-2h-.88Z" transform="translate(-33.18 -52.12)"/><path class="cls-2" d="M137,331.14h-3.62l-1.76-4v4h-3.17V321.08h5.67c1.75,0,2.85,1.34,2.85,3.46,0,1.77-.8,2.86-1.72,3.11Zm-5.38-5.07h1.09c.63,0,1-.39,1-1.1s-.34-1-.94-1h-1.13Z" transform="translate(-33.18 -52.12)"/></svg>